<svg xmlns="http://www.w3.org/2000/svg" viewBox="0 0 211.14 54.47"><defs><style>.cls-1{fill:#fff;}</style></defs><g id="Layer_2" data-name="Layer 2"><g id="Layer_1-2" data-name="Layer 1"><path class="cls-1" d="M34.88,54.42A128.64,128.64,0,0,1,12,53.12C5.93,52.17,1.59,47.23.8,41.07A123.59,123.59,0,0,1,.18,19.92a43.85,43.85,0,0,1,1.27-9.28C2.84,5.39,6.5,2.18,11.82,1.19A61.31,61.31,0,0,1,22,.09C30.75,0,39.49,0,48.23.12a69.91,69.91,0,0,1,9.77,1,13.61,13.61,0,0,1,11.21,12,122.67,122.67,0,0,1,.63,20.72,45.83,45.83,0,0,1-1.29,9.71,12.25,12.25,0,0,1-10.36,9.45A122.75,122.75,0,0,1,34.88,54.42ZM35,7c-5.31,0-10.61.1-15.89.47-1.81.12-3.61.2-5.41.35a9.12,9.12,0,0,0-8.87,7.88,42.54,42.54,0,0,0-.63,7.39c0,4.8,0,9.61.46,14.39.5,5.46,4.05,8.55,9.55,8.94,1.52.1,3,.25,4.57.35a248,248,0,0,0,38-.45,9,9,0,0,0,8.39-7.63,43.12,43.12,0,0,0,.67-7.6c0-4.8,0-9.62-.46-14.39-.5-5.47-4-8.6-9.54-8.93C48.89,7.4,41.94,7.09,35,7Z"/><path class="cls-1" d="M101.26,39.47H96.07L89.3,14.41h4.81c1.52,6.43,3.06,12.93,4.68,19.76,1.66-6.72,3.27-13.19,4.91-19.78h4.89c1.59,6.43,3.2,13,4.9,19.83,1.59-6.72,3.12-13.21,4.68-19.82H123c-2.26,8.36-4.49,16.63-6.76,25H111c-1.59-6.16-3.21-12.39-4.89-18.88C104.48,27,102.88,33.14,101.26,39.47Z"/><path class="cls-1" d="M156.21,14.3h4.9c1.94,3.08,3.93,6.2,5.88,9.35s3.83,6.3,5.91,9.71v-19h4.28V39.54a32.34,32.34,0,0,1-4.3-.06c-.56-.08-1.15-.78-1.5-1.35-3.43-5.58-6.81-11.19-10.2-16.79-.14-.23-.3-.44-.75-1.11V39.45h-4.22Z"/><path class="cls-1" d="M132,20.36c4.73,0,8.09,2.74,8.76,7.41a15.79,15.79,0,0,1-.12,5.4c-.86,4.22-4.32,6.8-8.69,6.79s-7.72-2.51-8.59-6.64a15.83,15.83,0,0,1-.12-5.82C124,22.86,127.29,20.36,132,20.36Zm4.13,12.72a10.58,10.58,0,0,0,.1-5.61,9.34,9.34,0,0,0-.29-.94,4.24,4.24,0,0,0-7.91,0,8.87,8.87,0,0,0,.06,7.39,4.07,4.07,0,0,0,4,2.55,3.92,3.92,0,0,0,3.77-2.5A6.74,6.74,0,0,0,136.12,33.08Z"/><path class="cls-1" d="M189.76,20.36c4.71,0,8,2.77,8.71,7.47a16.05,16.05,0,0,1-.15,5.4C197.44,37.44,194,40,189.58,40a8.36,8.36,0,0,1-8.54-6.7,15.34,15.34,0,0,1-.14-5.61C181.7,22.9,185,20.35,189.76,20.36Zm4,12.88a10.58,10.58,0,0,0,.09-6,7.58,7.58,0,0,0-.28-.8,4.24,4.24,0,0,0-7.82,0,8.82,8.82,0,0,0,.09,7.59,4,4,0,0,0,3.81,2.43,4.09,4.09,0,0,0,3.86-2.52C193.61,33.7,193.69,33.47,193.77,33.24Z"/><path class="cls-1" d="M149.11,16.15c.07,1.45.12,2.74.19,4.2l3.55.37v3l-3.6.28c0,3.57,0,7,0,10.52a1.56,1.56,0,0,0,1.86,1.65c.49,0,1,0,1.6,0,.24,1.09.45,2.07.68,3.15-.43.11-.76.24-1.1.29-5.21.77-7.42-1.09-7.43-6.28,0-3.05,0-6.1,0-9.26l-2.56-.38V20.78l2.51-.46V16.15Z"/><path class="cls-1" d="M206.81,16.13c.08,1.51.14,2.8.21,4.24l3.55.35v3l-3.66.22v2.74c0,2.19,0,4.37,0,6.56,0,2.61.21,2.78,2.84,2.91.21,0,.41.1.73.17.2,1,.41,1.94.66,3.11a25.59,25.59,0,0,1-2.9.37c-3.64,0-5.53-1.77-5.64-5.44-.08-2.62,0-5.24,0-7.86V24L200,23.68v-2.9l2.45-.46.24-4.19Z"/><path class="cls-1" d="M22.31,24c0,1.52,0,3.05,0,4.58-.06,1.71-.56,2.22-2.22,2.31-1.24.06-2.48,0-3.71,0a1.85,1.85,0,0,1-2-2.07q0-4.82,0-9.61c0-1.3.61-2.06,2-2.05h3.93a1.82,1.82,0,0,1,2,2c0,1.6,0,3.2,0,4.81Z"/><path class="cls-1" d="M47.7,23.88c0-1.53-.05-3.06,0-4.58s.52-2.07,2.11-2.15c1.24-.06,2.48-.06,3.71,0,1.65.08,2.07.45,2.1,2.14q.09,4.7,0,9.39c0,1.62-.51,2.08-2.1,2.18a30.62,30.62,0,0,1-3.71,0c-1.56-.09-2-.59-2.12-2.18s0-3.2,0-4.81Z"/></g></g></svg>